<?xml version="1.0" encoding="UTF-8" standalone="no"?>
<svg
   xmlns:dc="http://purl.org/dc/elements/1.1/"
   xmlns:cc="http://creativecommons.org/ns#"
   xmlns:rdf="http://www.w3.org/1999/02/22-rdf-syntax-ns#"
   xmlns:svg="http://www.w3.org/2000/svg"
   xmlns="http://www.w3.org/2000/svg"
   xmlns:xlink="http://www.w3.org/1999/xlink"
   width="215.97841mm"
   height="52.998741mm"
   viewBox="0 0 215.97842 52.998741"
   version="1.1"
   id="svg1254">
  <defs
     id="defs1248">
    <linearGradient
       id="linearGradient2113-0">
      <stop
         style="stop-color:#228b00;stop-opacity:0"
         offset="0"
         id="stop2109" />
      <stop
         style="stop-color:#228b00;stop-opacity:0.92156863;"
         offset="0.08959699"
         id="stop890" />
      <stop
         style="stop-color:#228b00;stop-opacity:0;"
         offset="1"
         id="stop2111" />
    </linearGradient>
    <rect
       x="246.81934"
       y="44.765804"
       width="31.75"
       height="46.113094"
       id="rect78" />
    <rect
       x="25.702381"
       y="83.910713"
       width="0"
       height="9.8273811"
       id="rect52" />
    <rect
       x="92.226189"
       y="86.934525"
       width="15.119048"
       height="15.119048"
       id="rect46" />
    <rect
       x="63.5"
       y="70.303574"
       width="37.797619"
       height="8.3154764"
       id="rect40" />
    <rect
       x="27.214287"
       y="66.523811"
       width="94.494049"
       height="47.625"
       id="rect34" />
    <rect
       x="8.3154764"
       y="65.011902"
       width="107.34524"
       height="39.309525"
       id="rect12" />
    <linearGradient
       xlink:href="#linearGradient2113-0"
       id="linearGradient2119"
       x1="1.9877762"
       y1="89.489952"
       x2="246.564"
       y2="89.757217"
       gradientUnits="userSpaceOnUse"
       gradientTransform="matrix(0.87113988,0,0,0.74396887,24.86556,30.670042)" />
  </defs>
  <metadata
     id="metadata1251">
    <rdf:RDF>
      <cc:Work
         rdf:about="">
        <dc:format>image/svg+xml</dc:format>
        <dc:type
           rdf:resource="http://purl.org/dc/dcmitype/StillImage" />
        <dc:title></dc:title>
      </cc:Work>
    </rdf:RDF>
  </metadata>
  <g
     id="layer3"
     style="opacity:1;mix-blend-mode:normal"
     transform="translate(-25.37087,-70.681047)">
    <path
       style="fill:none;stroke:url(#linearGradient2119);stroke-width:0.465;stroke-linecap:round;stroke-linejoin:round;stroke-miterlimit:4;stroke-dasharray:none;stroke-opacity:1"
       d="m 25.85337,97.596243 19.755669,0.0214 6.584879,-26.983443 9.878585,52.03409 8.89089,-32.156681 5.189203,18.159601 3.699662,-11.624667 161.014522,0.54967"
       id="path1945" />
  </g>
  <g
     id="layer1"
     style="display:inline"
     transform="translate(-25.37087,-70.681047)">
    <g
       id="layer1-6"
       transform="translate(9.5361823,13.772485)">
      <text
         xml:space="preserve"
         id="text10"
         style="font-style:normal;font-variant:normal;font-weight:bold;font-stretch:normal;font-size:19.05px;line-height:1.25;font-family:'MV Boli';-inkscape-font-specification:'MV Boli Bold';white-space:pre;shape-inside:url(#rect12);" />
      <text
         xml:space="preserve"
         id="text32"
         style="font-style:normal;font-variant:normal;font-weight:bold;font-stretch:normal;font-size:19.05px;line-height:1.25;font-family:'MV Boli';-inkscape-font-specification:'MV Boli Bold';white-space:pre;shape-inside:url(#rect34);" />
      <text
         xml:space="preserve"
         id="text38"
         style="font-style:normal;font-variant:normal;font-weight:bold;font-stretch:normal;font-size:19.05px;line-height:1.25;font-family:'MV Boli';-inkscape-font-specification:'MV Boli Bold';white-space:pre;shape-inside:url(#rect40);" />
      <text
         xml:space="preserve"
         id="text44"
         style="font-style:normal;font-variant:normal;font-weight:bold;font-stretch:normal;font-size:19.05px;line-height:1.25;font-family:'MV Boli';-inkscape-font-specification:'MV Boli Bold';white-space:pre;shape-inside:url(#rect46);" />
      <text
         xml:space="preserve"
         id="text50"
         style="font-style:normal;font-variant:normal;font-weight:bold;font-stretch:normal;font-size:19.05px;line-height:1.25;font-family:'MV Boli';-inkscape-font-specification:'MV Boli Bold';white-space:pre;shape-inside:url(#rect52);" />
      <g
         id="g980">
        <g
           id="g925">
          <g
             id="g36"
             style="font-style:normal;font-variant:normal;font-weight:normal;font-stretch:normal;font-size:39.3141px;line-height:1.25;font-family:'Agency FB';-inkscape-font-specification:'Agency FB';fill:#26a269;stroke:none;stroke-width:0.264583;stroke-opacity:1"
             transform="scale(0.96911855,1.0318655)">
            <path
               style="color:#000000;font-style:normal;font-variant:normal;font-weight:normal;font-stretch:normal;font-size:medium;line-height:1.25;font-family:Gulim;-inkscape-font-specification:Gulim;font-variant-ligatures:normal;font-variant-position:normal;font-variant-caps:normal;font-variant-numeric:normal;font-variant-alternates:normal;font-variant-east-asian:normal;font-feature-settings:normal;font-variation-settings:normal;text-indent:0;text-align:start;text-decoration:none;text-decoration-line:none;text-decoration-style:solid;text-decoration-color:#000000;letter-spacing:normal;word-spacing:normal;text-transform:none;writing-mode:lr-tb;direction:ltr;text-orientation:mixed;dominant-baseline:auto;baseline-shift:baseline;text-anchor:start;white-space:normal;shape-padding:0;shape-margin:0;inline-size:0;clip-rule:nonzero;display:inline;overflow:visible;visibility:visible;isolation:auto;mix-blend-mode:normal;color-interpolation:sRGB;color-interpolation-filters:linearRGB;solid-color:#000000;solid-opacity:1;vector-effect:none;fill:#beffa5;fill-opacity:1;fill-rule:nonzero;stroke:#6e6e6e;stroke-width:0.264583;stroke-linecap:butt;stroke-linejoin:miter;stroke-miterlimit:4;stroke-dasharray:none;stroke-dashoffset:0;stroke-opacity:1;color-rendering:auto;image-rendering:auto;shape-rendering:auto;text-rendering:auto;enable-background:accumulate;stop-color:#000000;stop-opacity:1"
               d="m 56.865616,55.513202 c -1.177375,0 -2.098799,0.390807 -2.764272,1.172419 -0.588688,0.703451 -0.883032,1.576251 -0.883032,2.618402 v 24.386315 c 0,0.390807 0.115178,0.703451 0.345534,0.937935 0.230357,0.20843 1.321195,0.312646 1.653931,0.312646 0.307141,0 1.404684,-0.104216 1.63504,-0.312646 0.255951,-0.234484 0.400117,-0.547435 0.383927,-0.937935 V 72.086209 h 11.530601 c 0.383927,0 0.691069,-0.117242 0.921425,-0.351726 0.204761,-0.20843 0.307141,-1.266928 0.307141,-1.553519 0,-0.286592 -0.10238,-1.289159 -0.307141,-1.497589 -0.230356,-0.20843 -0.537498,-0.312645 -0.921425,-0.312645 H 57.236744 v -7.34434 c 0,-0.495021 0.127976,-0.898855 0.383927,-1.2115 0.307141,-0.364752 0.742258,-0.547128 1.305351,-0.547128 h 11.300245 c 0.383927,0 0.691068,-0.117242 0.921424,-0.351726 0.204761,-0.20843 0.307142,-1.38811 0.307142,-1.674701 0,-0.312644 -0.102381,-1.207058 -0.307142,-1.415488 -0.230356,-0.20843 -0.537497,-0.312645 -0.921424,-0.312645 z"
               id="path38" />
          </g>
          <g
             id="g42"
             style="font-style:normal;font-variant:normal;font-weight:normal;font-stretch:normal;font-size:39.3141px;line-height:1.25;font-family:'Agency FB';-inkscape-font-specification:'Agency FB';fill:#26a269;stroke:none;stroke-width:0.264583;stroke-opacity:1"
             transform="scale(0.96911855,1.0318655)">
            <path
               style="color:#000000;font-style:normal;font-variant:normal;font-weight:normal;font-stretch:normal;font-size:medium;line-height:1.25;font-family:Gulim;-inkscape-font-specification:Gulim;font-variant-ligatures:normal;font-variant-position:normal;font-variant-caps:normal;font-variant-numeric:normal;font-variant-alternates:normal;font-variant-east-asian:normal;font-feature-settings:normal;font-variation-settings:normal;text-indent:0;text-align:start;text-decoration:none;text-decoration-line:none;text-decoration-style:solid;text-decoration-color:#000000;letter-spacing:normal;word-spacing:normal;text-transform:none;writing-mode:lr-tb;direction:ltr;text-orientation:mixed;dominant-baseline:auto;baseline-shift:baseline;text-anchor:start;white-space:normal;shape-padding:0;shape-margin:0;inline-size:0;clip-rule:nonzero;display:inline;overflow:visible;visibility:visible;isolation:auto;mix-blend-mode:normal;color-interpolation:sRGB;color-interpolation-filters:linearRGB;solid-color:#000000;solid-opacity:1;vector-effect:none;fill:#beffa5;fill-opacity:1;fill-rule:nonzero;stroke:#6e6e6e;stroke-width:0.264583;stroke-linecap:butt;stroke-linejoin:miter;stroke-miterlimit:4;stroke-dasharray:none;stroke-dashoffset:0;stroke-opacity:1;color-rendering:auto;image-rendering:auto;shape-rendering:auto;text-rendering:auto;enable-background:accumulate;stop-color:#000000;stop-opacity:1"
               d="M 76.006497,56.645515 V 83.71235 c 0,0.383927 0.115178,0.691068 0.345534,0.921424 0.230356,0.204761 1.60396,0.307142 1.936697,0.307142 0.307141,0 1.667948,-0.102381 1.898304,-0.307142 0.255951,-0.230356 0.383927,-0.537497 0.383927,-0.921424 V 56.645515 c 0,-0.409522 -0.127976,-0.729461 -0.383927,-0.959817 -0.230356,-0.204761 -1.591163,-0.307142 -1.898304,-0.307142 -0.332737,0 -1.706341,0.102381 -1.936697,0.307142 -0.230356,0.230356 -0.345534,0.550295 -0.345534,0.959817 z"
               id="path44" />
          </g>
          <g
             id="g48"
             style="font-style:normal;font-variant:normal;font-weight:normal;font-stretch:normal;font-size:39.3141px;line-height:1.25;font-family:'Agency FB';-inkscape-font-specification:'Agency FB';fill:#26a269;stroke:none;stroke-width:0.264583;stroke-opacity:1"
             transform="scale(0.96911855,1.0318655)">
            <path
               style="color:#000000;font-style:normal;font-variant:normal;font-weight:normal;font-stretch:normal;font-size:medium;line-height:1.25;font-family:Gulim;-inkscape-font-specification:Gulim;font-variant-ligatures:normal;font-variant-position:normal;font-variant-caps:normal;font-variant-numeric:normal;font-variant-alternates:normal;font-variant-east-asian:normal;font-feature-settings:normal;font-variation-settings:normal;text-indent:0;text-align:start;text-decoration:none;text-decoration-line:none;text-decoration-style:solid;text-decoration-color:#000000;letter-spacing:normal;word-spacing:normal;text-transform:none;writing-mode:lr-tb;direction:ltr;text-orientation:mixed;dominant-baseline:auto;baseline-shift:baseline;text-anchor:start;white-space:normal;shape-padding:0;shape-margin:0;inline-size:0;clip-rule:nonzero;display:inline;overflow:visible;visibility:visible;isolation:auto;mix-blend-mode:normal;color-interpolation:sRGB;color-interpolation-filters:linearRGB;solid-color:#000000;solid-opacity:1;vector-effect:none;fill:#beffa5;fill-opacity:1;fill-rule:nonzero;stroke:#6e6e6e;stroke-width:0.264583;stroke-linecap:butt;stroke-linejoin:miter;stroke-miterlimit:4;stroke-dasharray:none;stroke-dashoffset:0;stroke-opacity:1;color-rendering:auto;image-rendering:auto;shape-rendering:auto;text-rendering:auto;enable-background:accumulate;stop-color:#000000;stop-opacity:1"
               d="M 103.5895,55.513202 H 85.276193 c -0.614283,0 -0.921424,0.886767 -0.921424,1.616272 0,0.729505 0.307141,2.138288 0.921424,2.138288 h 7.047189 v 24.461657 c 0,0.364752 0.115178,0.66437 0.345534,0.898854 0.230356,0.20843 1.60396,0.312646 1.936697,0.312646 0.307141,0 1.667948,-0.104216 1.898304,-0.312646 0.255951,-0.234484 0.383927,-0.534102 0.383927,-0.898854 V 59.267762 h 6.701656 c 0.38393,0 0.69107,-0.117242 0.92142,-0.351726 0.23036,-0.20843 0.34554,-1.499971 0.34554,-1.786562 0,-0.312644 -0.11518,-1.095197 -0.34554,-1.303627 -0.23035,-0.20843 -0.53749,-0.312645 -0.92142,-0.312645 z"
               id="path50" />
            <g
               id="g900" />
          </g>
        </g>
        <g
           id="g54"
           style="font-style:normal;font-variant:normal;font-weight:normal;font-stretch:normal;font-size:39.3141px;line-height:1.25;font-family:'Agency FB';-inkscape-font-specification:'Agency FB';fill:#26a269;stroke:none;stroke-width:0.262265;stroke-opacity:1"
           transform="matrix(0.96911855,0,0,1.050188,0,-1.0122457)">
          <path
             style="color:#000000;font-style:normal;font-variant:normal;font-weight:normal;font-stretch:normal;font-size:medium;line-height:1.25;font-family:Gulim;-inkscape-font-specification:Gulim;font-variant-ligatures:normal;font-variant-position:normal;font-variant-caps:normal;font-variant-numeric:normal;font-variant-alternates:normal;font-variant-east-asian:normal;font-feature-settings:normal;font-variation-settings:normal;text-indent:0;text-align:start;text-decoration:none;text-decoration-line:none;text-decoration-style:solid;text-decoration-color:#000000;letter-spacing:normal;word-spacing:normal;text-transform:none;writing-mode:lr-tb;direction:ltr;text-orientation:mixed;dominant-baseline:auto;baseline-shift:baseline;text-anchor:start;white-space:normal;shape-padding:0;shape-margin:0;inline-size:0;clip-rule:nonzero;display:inline;overflow:visible;visibility:visible;isolation:auto;mix-blend-mode:normal;color-interpolation:sRGB;color-interpolation-filters:linearRGB;solid-color:#000000;solid-opacity:1;vector-effect:none;fill:#6e6e6e;fill-opacity:1;fill-rule:nonzero;stroke:none;stroke-width:0.262265;stroke-linecap:butt;stroke-linejoin:miter;stroke-miterlimit:4;stroke-dasharray:none;stroke-dashoffset:0;stroke-opacity:1;color-rendering:auto;image-rendering:auto;shape-rendering:auto;text-rendering:auto;enable-background:accumulate;stop-color:#000000;stop-opacity:1"
             d="m 110.11625,56.645515 v 23.957028 c 0,0.99821 0.29435,1.842849 0.88304,2.533917 0.66547,0.767853 1.5869,1.15178 2.76427,1.15178 h 12.24726 c 0.38393,0 0.69107,-0.115178 0.92143,-0.345534 0.20476,-0.204761 0.30714,-0.447914 0.30714,-0.729461 0,-0.307141 -0.10238,-0.563092 -0.30714,-0.767853 -0.23036,-0.204761 -0.5375,-0.307142 -0.92143,-0.307142 h -11.82494 c -0.56309,0 -0.99821,-0.179166 -1.30535,-0.537497 -0.25595,-0.307141 -0.38393,-0.691068 -0.38393,-1.15178 V 56.645515 c 0,-0.409522 -0.12798,-0.729461 -0.38393,-0.959817 -0.23035,-0.204761 -0.51624,-0.304972 -0.80624,-0.307142 -0.3019,-0.0023 -0.61429,0.102381 -0.84464,0.307142 -0.23036,0.230356 -0.34554,0.550295 -0.34554,0.959817 z"
             id="path56" />
          <path
             style="color:#000000;font-style:normal;font-variant:normal;font-weight:normal;font-stretch:normal;font-size:medium;line-height:1.25;font-family:Gulim;-inkscape-font-specification:Gulim;font-variant-ligatures:normal;font-variant-position:normal;font-variant-caps:normal;font-variant-numeric:normal;font-variant-alternates:normal;font-variant-east-asian:normal;font-feature-settings:normal;font-variation-settings:normal;text-indent:0;text-align:start;text-decoration:none;text-decoration-line:none;text-decoration-style:solid;text-decoration-color:#000000;letter-spacing:normal;word-spacing:normal;text-transform:none;writing-mode:lr-tb;direction:ltr;text-orientation:mixed;dominant-baseline:auto;baseline-shift:baseline;text-anchor:start;white-space:normal;shape-padding:0;shape-margin:0;inline-size:0;clip-rule:nonzero;display:inline;overflow:visible;visibility:visible;isolation:auto;mix-blend-mode:normal;color-interpolation:sRGB;color-interpolation-filters:linearRGB;solid-color:#000000;solid-opacity:1;vector-effect:none;fill-opacity:1;fill-rule:nonzero;stroke:none;stroke-width:0.262265;stroke-linecap:butt;stroke-linejoin:miter;stroke-miterlimit:4;stroke-dasharray:none;stroke-dashoffset:0;stroke-opacity:1;color-rendering:auto;image-rendering:auto;shape-rendering:auto;text-rendering:auto;enable-background:accumulate;stop-color:#000000;stop-opacity:1"
             d="m 111.30664,55.246094 c -0.35988,0 -0.6796,0.114069 -0.93359,0.339844 l -0.002,0.0039 -0.002,0.002 c -0.25808,0.258072 -0.38476,0.62036 -0.38476,1.054687 v 23.957032 c 0,1.024216 0.30497,1.904137 0.91406,2.61914 0.69076,0.797033 1.6591,1.197266 2.86523,1.197266 h 12.24805 c 0.41038,0 0.75733,-0.126473 1.01367,-0.382813 0.2262,-0.226198 0.3457,-0.510601 0.3457,-0.824218 0,-0.33654 -0.11755,-0.633182 -0.3457,-0.861329 l -0.002,-0.002 -0.004,-0.0039 c -0.25763,-0.229006 -0.60037,-0.339844 -1.00781,-0.339844 h -11.82617 c -0.53429,0 -0.92208,-0.163146 -1.20313,-0.490234 -0.23513,-0.282151 -0.35351,-0.630193 -0.35351,-1.066406 V 56.646484 c 0,-0.437083 -0.14281,-0.802161 -0.42774,-1.058593 v -0.002 c -0.25217,-0.224158 -0.55799,-0.339844 -0.89453,-0.339844 z m 0,0.265625 c 0.27774,0 0.51022,0.08807 0.71875,0.273437 0.22574,0.204109 0.33984,0.48041 0.33984,0.861328 v 23.802735 c 0,0.48521 0.13729,0.904196 0.41407,1.236328 v 0.002 c 0.33313,0.388661 0.81509,0.583984 1.40625,0.583984 h 11.82617 c 0.35863,0 0.62538,0.09272 0.82812,0.271485 0.17917,0.180691 0.26758,0.393844 0.26758,0.669922 0,0.249476 -0.0862,0.453395 -0.26953,0.636718 -0.20438,0.204373 -0.4687,0.306641 -0.82617,0.306641 h -12.24805 c -1.14861,0 -2.02388,-0.366795 -2.66406,-1.105469 -0.5683,-0.667132 -0.85156,-1.475062 -0.85156,-2.447265 V 56.646484 c 0,-0.382904 0.10392,-0.66088 0.30468,-0.863281 0.20601,-0.181754 0.44995,-0.271484 0.75391,-0.271484 z"
             id="path58" />
        </g>
        <g
           id="g60"
           style="font-style:normal;font-variant:normal;font-weight:normal;font-stretch:normal;font-size:39.3141px;line-height:1.25;font-family:'Agency FB';-inkscape-font-specification:'Agency FB';fill:#26a269;stroke:none;stroke-width:0.264583;stroke-opacity:1"
           transform="scale(0.96911855,1.0318655)">
          <path
             style="color:#000000;font-style:normal;font-variant:normal;font-weight:normal;font-stretch:normal;font-size:medium;line-height:1.25;font-family:Gulim;-inkscape-font-specification:Gulim;font-variant-ligatures:normal;font-variant-position:normal;font-variant-caps:normal;font-variant-numeric:normal;font-variant-alternates:normal;font-variant-east-asian:normal;font-feature-settings:normal;font-variation-settings:normal;text-indent:0;text-align:start;text-decoration:none;text-decoration-line:none;text-decoration-style:solid;text-decoration-color:#000000;letter-spacing:normal;word-spacing:normal;text-transform:none;writing-mode:lr-tb;direction:ltr;text-orientation:mixed;dominant-baseline:auto;baseline-shift:baseline;text-anchor:start;white-space:normal;shape-padding:0;shape-margin:0;inline-size:0;clip-rule:nonzero;display:inline;overflow:visible;visibility:visible;isolation:auto;mix-blend-mode:normal;color-interpolation:sRGB;color-interpolation-filters:linearRGB;solid-color:#000000;solid-opacity:1;vector-effect:none;fill:#6e6e6e;fill-opacity:1;fill-rule:nonzero;stroke:none;stroke-width:0.264583;stroke-linecap:butt;stroke-linejoin:miter;stroke-miterlimit:4;stroke-dasharray:none;stroke-dashoffset:0;stroke-opacity:1;color-rendering:auto;image-rendering:auto;shape-rendering:auto;text-rendering:auto;enable-background:accumulate;stop-color:#000000;stop-opacity:1"
             d="m 135.07149,72.924009 5.33659,-14.589217 h 0.11517 l 5.29819,14.589217 z m 3.1866,-15.740997 -9.48299,26.030233 c -0.17917,0.409522 -0.19197,0.767854 -0.0384,1.074995 0.15357,0.307141 0.38393,0.511902 0.69107,0.614283 0.30714,0.102381 0.60148,0.07678 0.88303,-0.07679 0.33274,-0.179166 0.57589,-0.460712 0.72946,-0.844639 l 3.26338,-8.945493 h 12.32405 l 3.22498,8.945493 c 0.15357,0.383927 0.38393,0.665473 0.69107,0.844639 0.30714,0.127975 0.61428,0.140772 0.92143,0.03839 0.30714,-0.10238 0.5247,-0.294343 0.65267,-0.57589 0.15357,-0.332737 0.16637,-0.691068 0.0384,-1.074995 l -9.52138,-26.030233 c -0.20476,-0.588687 -0.5119,-1.036602 -0.92142,-1.343743 -0.38393,-0.281547 -0.79345,-0.42232 -1.22857,-0.42232 -0.48631,0 -0.92142,0.140773 -1.30535,0.42232 -0.40952,0.307141 -0.71666,0.755056 -0.92142,1.343743 z"
             id="path62" />
          <path
             style="color:#000000;font-style:normal;font-variant:normal;font-weight:normal;font-stretch:normal;font-size:medium;line-height:1.25;font-family:Gulim;-inkscape-font-specification:Gulim;font-variant-ligatures:normal;font-variant-position:normal;font-variant-caps:normal;font-variant-numeric:normal;font-variant-alternates:normal;font-variant-east-asian:normal;font-feature-settings:normal;font-variation-settings:normal;text-indent:0;text-align:start;text-decoration:none;text-decoration-line:none;text-decoration-style:solid;text-decoration-color:#000000;letter-spacing:normal;word-spacing:normal;text-transform:none;writing-mode:lr-tb;direction:ltr;text-orientation:mixed;dominant-baseline:auto;baseline-shift:baseline;text-anchor:start;white-space:normal;shape-padding:0;shape-margin:0;inline-size:0;clip-rule:nonzero;display:inline;overflow:visible;visibility:visible;isolation:auto;mix-blend-mode:normal;color-interpolation:sRGB;color-interpolation-filters:linearRGB;solid-color:#000000;solid-opacity:1;vector-effect:none;fill-opacity:1;fill-rule:nonzero;stroke:none;stroke-width:0.264583;stroke-linecap:butt;stroke-linejoin:miter;stroke-miterlimit:4;stroke-dasharray:none;stroke-dashoffset:0;stroke-opacity:1;color-rendering:auto;image-rendering:auto;shape-rendering:auto;text-rendering:auto;enable-background:accumulate;stop-color:#000000;stop-opacity:1"
             d="m 140.48438,55.285156 c -0.51184,0 -0.97741,0.149967 -1.38282,0.447266 l -0.002,0.002 c -0.43351,0.325133 -0.75539,0.796506 -0.9668,1.404297 h 0.002 l -9.48047,26.021484 c -0.1896,0.433364 -0.20845,0.840917 -0.0352,1.1875 0.16672,0.333436 0.42906,0.566848 0.76758,0.679688 0.33681,0.11227 0.67667,0.08236 0.98633,-0.08594 0.35999,-0.193839 0.62785,-0.504181 0.79101,-0.912109 l 3.23242,-8.861328 h 12.13868 l 3.19336,8.859375 0.002,0.002 c 0.16223,0.405574 0.41172,0.715103 0.74609,0.910156 l 0.008,0.0059 0.008,0.002 c 0.33315,0.138814 0.68024,0.154763 1.01562,0.04297 0.33643,-0.112141 0.5885,-0.334141 0.73047,-0.646484 0.16755,-0.363009 0.17959,-0.762011 0.043,-1.171875 v -0.002 l -9.52148,-26.03125 v -0.002 c -0.21142,-0.606964 -0.5337,-1.077518 -0.9668,-1.402344 v -0.002 h -0.002 c -0.40315,-0.295641 -0.84299,-0.447266 -1.30664,-0.447266 z m 0,0.263672 c 0.40658,0 0.78568,0.129032 1.15039,0.396484 0.38553,0.28915 0.67688,0.711667 0.875,1.28125 l 9.52148,26.03125 c 0.11856,0.357112 0.10612,0.67275 -0.0332,0.97461 v 0.002 c -0.11398,0.250751 -0.29637,0.411288 -0.57422,0.503906 -0.27498,0.09166 -0.54154,0.07738 -0.81836,-0.03516 -0.27467,-0.16274 -0.48547,-0.41125 -0.62891,-0.767578 l -0.002,-0.002 c -2.2e-4,-5.44e-4 2.2e-4,-0.0014 0,-0.002 l -3.25391,-9.029297 h -12.50976 l -3.29492,9.033203 c -0.144,0.35756 -0.36374,0.609623 -0.66797,0.773437 -0.25295,0.137972 -0.50249,0.16063 -0.7793,0.06836 -0.27576,-0.09192 -0.47286,-0.267981 -0.61328,-0.548828 -0.13385,-0.2677 -0.12772,-0.577211 0.041,-0.962891 l 0.002,-0.0039 9.48437,-26.035157 c 0.19812,-0.569582 0.49142,-0.9921 0.87696,-1.28125 0.36204,-0.265023 0.76449,-0.396484 1.22461,-0.396484 z m -0.16797,2.654297 -5.4336,14.853516 h 0.18946 10.9375 l -5.39454,-14.853516 z m 0.14843,0.359375 5.16797,14.228516 h -10.37304 z"
             id="path64" />
        </g>
        <g
           id="g66"
           style="font-style:normal;font-variant:normal;font-weight:normal;font-stretch:normal;font-size:39.3141px;line-height:1.25;font-family:'Agency FB';-inkscape-font-specification:'Agency FB';fill:#26a269;stroke:none;stroke-width:0.260468;stroke-opacity:1"
           transform="matrix(0.96911855,0,0,1.0647269,-0.52916663,-2.3714393)">
          <path
             style="color:#000000;font-style:normal;font-variant:normal;font-weight:normal;font-stretch:normal;font-size:medium;line-height:1.25;font-family:Gulim;-inkscape-font-specification:Gulim;font-variant-ligatures:normal;font-variant-position:normal;font-variant-caps:normal;font-variant-numeric:normal;font-variant-alternates:normal;font-variant-east-asian:normal;font-feature-settings:normal;font-variation-settings:normal;text-indent:0;text-align:start;text-decoration:none;text-decoration-line:none;text-decoration-style:solid;text-decoration-color:#000000;letter-spacing:normal;word-spacing:normal;text-transform:none;writing-mode:lr-tb;direction:ltr;text-orientation:mixed;dominant-baseline:auto;baseline-shift:baseline;text-anchor:start;white-space:normal;shape-padding:0;shape-margin:0;inline-size:0;clip-rule:nonzero;display:inline;overflow:visible;visibility:visible;isolation:auto;mix-blend-mode:normal;color-interpolation:sRGB;color-interpolation-filters:linearRGB;solid-color:#000000;solid-opacity:1;vector-effect:none;fill:#6e6e6e;fill-opacity:1;fill-rule:nonzero;stroke:none;stroke-width:0.260468;stroke-linecap:butt;stroke-linejoin:miter;stroke-miterlimit:4;stroke-dasharray:none;stroke-dashoffset:0;stroke-opacity:1;color-rendering:auto;image-rendering:auto;shape-rendering:auto;text-rendering:auto;enable-background:accumulate;stop-color:#000000;stop-opacity:1"
             d="m 160.48744,56.031232 c -1.17737,0 -2.0988,0.383927 -2.76427,1.15178 -0.58869,0.691068 -0.88303,1.548504 -0.88303,2.572309 v 20.847222 c 0,0.99821 0.29434,1.842849 0.88303,2.533917 0.66547,0.767853 1.5869,1.15178 2.76427,1.15178 h 9.09907 c 2.50832,0 4.50474,-0.831841 5.98925,-2.495524 1.33095,-1.484517 1.99642,-3.30177 1.99642,-5.451759 0,-1.663683 -0.44791,-3.122604 -1.34374,-4.376765 -0.79345,-1.151781 -1.89404,-2.060407 -3.30177,-2.72588 1.07499,-0.639878 1.89404,-1.471719 2.45713,-2.495524 0.58869,-0.998209 0.88303,-2.137192 0.88303,-3.416948 0,-1.970824 -0.61428,-3.647304 -1.84285,-5.02944 -1.35654,-1.510112 -3.16099,-2.265168 -5.41336,-2.265168 z m 8.29282,12.362441 h -9.55978 v -8.484781 c 0,-0.486307 0.12798,-0.883032 0.38393,-1.190173 0.30714,-0.358331 0.74226,-0.537497 1.30535,-0.537497 h 7.8705 c 1.61249,0 2.87945,0.5247 3.80087,1.574099 0.87024,0.947019 1.30536,2.124395 1.30536,3.532126 0,1.356541 -0.43512,2.521119 -1.30536,3.493734 -0.94701,1.074995 -2.21397,1.612492 -3.80087,1.612492 z m 0.76785,13.744577 h -8.63835 c -0.56309,0 -0.99821,-0.179166 -1.30535,-0.537497 -0.25595,-0.307141 -0.38393,-0.691068 -0.38393,-1.15178 V 70.50527 h 10.13567 c 1.79166,0 3.23778,0.601485 4.33837,1.804456 0.99821,1.10059 1.49732,2.444334 1.49732,4.031231 0,1.586897 -0.47351,2.917843 -1.42053,3.992838 -1.0494,1.20297 -2.45713,1.804455 -4.2232,1.804455 z"
             id="path68" />
          <path
             style="color:#000000;font-style:normal;font-variant:normal;font-weight:normal;font-stretch:normal;font-size:medium;line-height:1.25;font-family:Gulim;-inkscape-font-specification:Gulim;font-variant-ligatures:normal;font-variant-position:normal;font-variant-caps:normal;font-variant-numeric:normal;font-variant-alternates:normal;font-variant-east-asian:normal;font-feature-settings:normal;font-variation-settings:normal;text-indent:0;text-align:start;text-decoration:none;text-decoration-line:none;text-decoration-style:solid;text-decoration-color:#000000;letter-spacing:normal;word-spacing:normal;text-transform:none;writing-mode:lr-tb;direction:ltr;text-orientation:mixed;dominant-baseline:auto;baseline-shift:baseline;text-anchor:start;white-space:normal;shape-padding:0;shape-margin:0;inline-size:0;clip-rule:nonzero;display:inline;overflow:visible;visibility:visible;isolation:auto;mix-blend-mode:normal;color-interpolation:sRGB;color-interpolation-filters:linearRGB;solid-color:#000000;solid-opacity:1;vector-effect:none;fill-opacity:1;fill-rule:nonzero;stroke:none;stroke-width:0.260468;stroke-linecap:butt;stroke-linejoin:miter;stroke-miterlimit:4;stroke-dasharray:none;stroke-dashoffset:0;stroke-opacity:1;color-rendering:auto;image-rendering:auto;shape-rendering:auto;text-rendering:auto;enable-background:accumulate;stop-color:#000000;stop-opacity:1"
             d="m 160.48828,55.898438 c -1.20613,-10e-7 -2.17447,0.400232 -2.86523,1.197265 v 0.002 c -0.6096,0.715618 -0.91602,1.609043 -0.91602,2.658203 v 20.847657 c 0,1.024216 0.30694,1.904137 0.91602,2.61914 0.69076,0.797033 1.6591,1.197266 2.86523,1.197266 h 9.09766 c 2.53757,0 4.57873,-0.847762 6.08789,-2.539063 1.35213,-1.508151 2.03125,-3.361775 2.03125,-5.539062 0,-1.686473 -0.45631,-3.176932 -1.36719,-4.453125 l -0.002,-0.002 c -0.77586,-1.125375 -1.85861,-2.00781 -3.20508,-2.673828 1.00577,-0.63486 1.82399,-1.416196 2.36719,-2.402344 v -0.002 c 0.60062,-1.019134 0.90039,-2.183065 0.90039,-3.482422 0,-1.998313 -0.62569,-3.711715 -1.875,-5.117188 l -0.002,-0.002 c -1.38086,-1.53719 -3.22978,-2.308594 -5.51171,-2.308593 z m 0,0.265624 h 8.52149 c 2.22218,0 3.98237,0.738495 5.31445,2.220704 1.20782,1.358799 1.81055,2.998071 1.81055,4.941406 0,1.259471 -0.28912,2.372708 -0.86524,3.349609 v 0.002 l -0.002,0.002 c -0.55157,1.002853 -1.35113,1.816103 -2.4082,2.445312 l -0.21485,0.126953 0.22656,0.105469 c 1.38976,0.656974 2.46859,1.550158 3.24805,2.68164 l 0.002,0.002 c 0.87975,1.231647 1.31836,2.660843 1.31836,4.300781 0,2.122691 -0.65313,3.902399 -1.96289,5.363281 -1.45987,1.636065 -3.41155,2.451172 -5.89062,2.451172 h -9.09766 c -1.14797,0 -2.02397,-0.367623 -2.66406,-1.105469 -0.5683,-0.667132 -0.85156,-1.475061 -0.85156,-2.447265 V 59.755859 c 0,-0.998448 0.28378,-1.819809 0.85156,-2.486328 0.64009,-0.737845 1.51609,-1.105468 2.66406,-1.105469 z m 0.42188,1.884766 c -0.59116,0 -1.07312,0.195323 -1.40625,0.583984 l -0.002,0.002 c -0.27793,0.33352 -0.41406,0.763921 -0.41406,1.273437 v 8.617188 h 9.69141 c 1.61677,0 2.92915,-0.553754 3.90039,-1.65625 0.89062,-0.995392 1.33984,-2.197201 1.33984,-3.582032 0,-1.433988 -0.44875,-2.648411 -1.33984,-3.61914 -0.94667,-1.078151 -2.2592,-1.619141 -3.90039,-1.619141 z m 0,0.265625 h 7.86914 c 1.58379,0 2.80695,0.506696 3.70312,1.527344 v 0.002 l 0.002,0.002 c 0.84814,0.922972 1.26953,2.060935 1.26953,3.441406 0,1.328253 -0.42163,2.456412 -1.27149,3.40625 -0.92278,1.047493 -2.1461,1.56836 -3.70312,1.56836 h -9.42578 v -8.353516 c 0,-0.462355 0.11833,-0.822945 0.35156,-1.103515 0.28114,-0.328002 0.67004,-0.490235 1.20508,-0.490235 z m -1.82227,12.058594 v 10.076172 c 0,0.48521 0.13728,0.904196 0.41406,1.236328 h 0.002 v 0.002 c 0.33313,0.388661 0.81509,0.583984 1.40625,0.583984 h 8.63867 c 1.7961,0 3.2487,-0.620889 4.32226,-1.851562 0.96761,-1.099003 1.45313,-2.465545 1.45313,-4.078125 0,-1.614636 -0.51178,-2.997068 -1.53125,-4.121094 -1.12472,-1.229348 -2.61623,-1.847656 -4.4375,-1.847656 z m 0.26563,0.263672 h 10.00195 c 1.76144,0 3.16393,0.585948 4.24023,1.761719 0.97696,1.077153 1.46289,2.3842 1.46289,3.943359 0,1.56058 -0.46104,2.853529 -1.38671,3.904297 -1.02524,1.175266 -2.38702,1.759765 -4.12305,1.759765 h -8.63867 c -0.53504,0 -0.92394,-0.162233 -1.20508,-0.490234 -0.23513,-0.282151 -0.35156,-0.630193 -0.35156,-1.066406 z"
             id="path70" />
        </g>
      </g>
      <text
         xml:space="preserve"
         id="text76"
         style="font-size:19.05px;line-height:1.25;font-family:sans-serif;white-space:pre;shape-inside:url(#rect78);" />
    </g>
  </g>
</svg>
